
        <svg xmlns="http://www.w3.org/2000/svg" xmlns:xlink="http://www.w3.org/1999/xlink" version="1.1" width="3214.285714285714" 
        height="1786.120645218024" viewBox="0 0 3214.285714285714 1786.120645218024">
			
			<g transform="scale(10.714285714285714) translate(10, 10)">
				<defs id="SvgjsDefs1513"><linearGradient id="SvgjsLinearGradient1520"><stop id="SvgjsStop1521" stop-color="#8f5e25" offset="0"></stop><stop id="SvgjsStop1522" stop-color="#fbf4a1" offset="0.5"></stop><stop id="SvgjsStop1523" stop-color="#8f5e25" offset="1"></stop></linearGradient><linearGradient id="SvgjsLinearGradient1524"><stop id="SvgjsStop1525" stop-color="#8f5e25" offset="0"></stop><stop id="SvgjsStop1526" stop-color="#fbf4a1" offset="0.5"></stop><stop id="SvgjsStop1527" stop-color="#8f5e25" offset="1"></stop></linearGradient><linearGradient id="SvgjsLinearGradient1528"><stop id="SvgjsStop1529" stop-color="#8f5e25" offset="0"></stop><stop id="SvgjsStop1530" stop-color="#fbf4a1" offset="0.5"></stop><stop id="SvgjsStop1531" stop-color="#8f5e25" offset="1"></stop></linearGradient></defs><g id="SvgjsG1514" featureKey="mugSzh-0" transform="matrix(0.4040183472165322,0,0,0.4040183472165322,68,3.317211424060595)" fill="url(#SvgjsLinearGradient1520)"><g xmlns="http://www.w3.org/2000/svg"><path d="M28.009,112.22c-0.883,2.01-1.734,4.21-2.538,6.625c-4.316,12.944-7.509,32.1-7.6,61.27h-3.753c-2.209,0-4,1.791-4,4v6   h31.5v-6c0-2.209-1.791-4-4-4H33.87c0.029-12.36,0.66-22.688,1.663-31.28c3.981-0.956,54.499-12.887,93.8-12.887   c37.985,0,86.449,11.146,93.247,12.755c1.009,8.621,1.643,18.993,1.679,31.412h-3.743c-2.209,0-4,1.791-4,4v6h31.5v-6   c0-2.209-1.791-4-4-4h-3.758c-0.124-34.618-4.559-55.159-10.149-67.895h24.496l4.061-21.164c0-2.597-2.106-4.703-4.703-4.703h-88.1   c-0.306-4.139-3.752-7.404-7.97-7.404s-7.664,3.265-7.97,7.404H49.364c-0.306-4.139-3.752-7.404-7.97-7.404   s-7.664,3.265-7.97,7.404H4.703C2.106,86.353,0,88.459,0,91.056l4.061,21.164H28.009z"></path><g><path d="M170.655,83.149l42.296-5.427c-0.587-1.176-0.946-2.475-1.028-3.839l-41.716,5.963L170.655,83.149z"></path><g><ellipse transform="matrix(0.4967 -0.868 0.868 0.4967 102.3355 221.4594)" cx="242.104" cy="22.499" rx="22.495" ry="22.495"></ellipse><path d="M268.117,48.18c0.069-0.338,0.161-0.668,0.265-0.993c1.282-4.026,5.128-6.91,9.505-6.91c0.598,0,1.204,0.053,1.795,0.162     c3.051,0.555,5.529,2.449,6.937,4.966c1.095,1.956,1.544,4.289,1.113,6.662c-0.21,1.156-1.312,6.057-5.43,11.756     c-1.237,1.712-2.746,3.494-4.588,5.271c-0.063,0.061-0.118,0.121-0.181,0.182c-0.064,0.062-0.133,0.124-0.198,0.185l0.809-0.104     c8.498,5.189,18.621,11.443,27.182,18.934c-1.802,1.614-3.656,3.406-5.52,5.398c-5.553,5.957-11.156,13.699-15.358,23.426     c-4.204,9.717-6.954,21.404-6.945,34.854c0,8.824,1.168,18.396,3.772,28.703c1.431,5.667,6.521,9.442,12.109,9.443     c1.013,0,2.043-0.124,3.07-0.384c6.694-1.691,10.75-8.485,9.061-15.18h-0.002c-2.138-8.477-3.008-15.962-3.01-22.583     c0.01-10.095,1.997-18.206,4.897-24.941c1.678-3.893,3.69-7.337,5.847-10.363c0.146,10.118,1.203,21.732,4.391,33.407     c3.449,12.574,9.472,25.428,20.068,35.693c4.965,4.799,12.879,4.665,17.675-0.298c4.799-4.965,4.665-12.878-0.298-17.675     c-6.386-6.151-10.697-14.679-13.333-24.327c-2.643-9.604-3.531-20.115-3.521-29.226c-0.002-6.986,0.502-13.147,1-17.491     c0.25-2.173,0.497-3.891,0.676-5.032c0.09-0.572,0.161-1.001,0.208-1.268c0.025-0.135,0.041-0.229,0.051-0.284     c0.006-0.032,0.006-0.032,0.006-0.032c0.122-0.64,0.189-1.281,0.211-1.92c1.929-5.207,1.624-11.458-3.902-19.032     c-1.517-1.778-2.985-3.435-4.431-5.024c0.247-0.563,0.436-1.16,0.548-1.785l22.147-2.842l-0.807-5.945l-21.056,3.01     c-0.011-5.205-0.679-9.803-2.078-13.869c-2.061-6.139-6.106-11.013-10.982-13.781c-4.867-2.805-10.143-3.672-15.096-3.678     c-8.667,0.037-16.875,2.568-23.189,4.95c-4.083,1.561-7.324,3.099-9.16,4.02c-4.895,1.733-8.641,4.993-10.666,8.663     c-2.174,3.941-1.616,8.707,0.682,13.047c0.178-0.142,0.364-0.279,0.536-0.425C266.903,52.122,267.949,48.81,268.117,48.18z      M304.724,41.266c2.035-0.002,3.816,0.255,5.214,0.708c2.117,0.733,3.358,1.6,4.594,3.507c0.564,0.899,1.111,2.151,1.538,3.809     c-3.875-2.916-7.959-5.502-12.501-7.986C303.956,41.288,304.35,41.263,304.724,41.266z"></path><path d="M221.191,81.248c4.074,0.358,7.901,0.526,11.503,0.528c0.098,0.001,0.196,0.001,0.293,0.001     c19.694,0,32.706-5.33,40.764-11.856c0.773-0.627,1.511-1.261,2.194-1.906c0.067-0.063,0.141-0.124,0.207-0.187     c1.266-1.205,2.353-2.413,3.313-3.599c4.971-6.139,6.139-11.633,6.3-12.519c0.362-1.991-0.054-3.939-1.021-5.547     c-1.144-1.902-3.063-3.327-5.419-3.755c-4.29-0.779-8.403,2.018-9.268,6.269h0c-0.001,0.005-0.006,0.024-0.009,0.034     c-0.103,0.383-1.173,4.358-5.827,8.338c-0.251,0.213-0.522,0.428-0.796,0.643c-4.968,3.89-13.866,8.044-30.729,8.083     c-3.098,0-6.46-0.145-10.1-0.465c-4.4-0.389-8.283,2.865-8.67,7.267c-0.03,0.345-0.031,0.685-0.018,1.022     c0.054,1.398,0.473,2.713,1.17,3.85C216.356,79.536,218.566,81.017,221.191,81.248z"></path></g></g></g></g><g id="SvgjsG1515" featureKey="PPkF4s-0" transform="matrix(1.638576878521976,0,0,1.638576878521976,-2.5561794460669907,92.00374464529251)" fill="url(#SvgjsLinearGradient1524)"><path d="M4.7 20 l-3.14 0 l0 -15.08 l10.08 8.92 l0 -8.44 l3.16 0 l0 15.06 l-10.1 -8.78 l0 8.32 z M26.28 18.9 q-0.38 0.52 -1.31 0.93 t-2.03 0.41 q-1.7 0 -2.95 -0.76 t-1.91 -2.07 t-0.66 -2.91 t0.66 -2.91 t1.91 -2.07 t2.95 -0.76 q1.14 0 2.01 0.39 t1.33 0.99 l0 -1.14 l2.96 0 l0 11 l-2.96 0 l0 -1.1 z M25.58 12.25 q-0.82 -0.87 -2.2 -0.87 q-1.4 0 -2.21 0.87 t-0.81 2.25 q0 1.34 0.83 2.22 t2.19 0.88 q1.4 0 2.21 -0.83 t0.81 -2.27 q0 -1.38 -0.82 -2.25 z M35.22 4.880000000000001 l0 8.8 l3.74 -4.62 l3.66 0 l-4.42 5.12 l4.6 5.82 l-3.62 0 l-2.88 -3.6 l-1.08 1.24 l0 2.36 l-3 0 l0 -15.12 l3 0 z M44.28 15.54 l0 -6.5 l3.02 0 l0 6.5 q0 1.18 0.59 1.69 t1.55 0.51 q0.84 0 1.5 -0.65 t0.6 -2.23 l0 -5.82 l3 0 l0 10.96 l-3 0 l0 -0.94 q-0.54 0.56 -1.31 0.87 t-1.63 0.31 q-4.32 0 -4.32 -4.7 z M62.699999999999996 11.87 q-0.86 0.21 -1.58 0.99 t-0.72 2.28 l0 4.86 l-2.98 0 l0 -11 l2.98 0 l0 1.46 q0.74 -0.98 1.81 -1.33 t1.95 -0.33 l0 2.92 q-0.6 -0.06 -1.46 0.15 z M65.92 15.54 l0 -6.5 l3.02 0 l0 6.5 q0 1.18 0.59 1.69 t1.55 0.51 q0.84 0 1.5 -0.65 t0.6 -2.23 l0 -5.82 l3 0 l0 10.96 l-3 0 l0 -0.94 q-0.54 0.56 -1.31 0.87 t-1.63 0.31 q-4.32 0 -4.32 -4.7 z M88.58 16.87 q1.42 0.57 2.6 0.57 q1.24 0 1.97 -0.48 t0.73 -1.14 q0 -0.54 -0.43 -0.88 t-1.09 -0.51 t-1.74 -0.37 q-1.44 -0.24 -2.64 -0.62 t-2.18 -1.32 t-0.98 -2.54 q0 -2.36 1.73 -3.39 t4.07 -1.03 q1.8 0 3.13 0.49 t2.65 1.47 l-1.76 2.4 q-0.98 -0.7 -2.04 -1.1 t-2.1 -0.4 q-0.92 0 -1.72 0.33 t-0.8 1.11 q0 0.48 0.41 0.77 t0.9 0.42 t1.59 0.37 l0.72 0.14 q1.66 0.32 2.75 0.71 t1.89 1.31 t0.8 2.56 q0 2.22 -1.57 3.38 t-4.25 1.16 q-3.92 0 -6.6 -2.28 l1.68 -2.42 q0.86 0.72 2.28 1.29 z M108.45 10.02 q1.03 1.22 1.03 3.48 l0 6.5 l-3.06 0 l0 -6.5 q0 -2.22 -2.12 -2.22 q-0.82 0 -1.48 0.65 t-0.62 2.25 l0 5.82 l-2.98 0 l0 -11 l2.98 0 l0 0.98 q0.54 -0.54 1.36 -0.86 t1.58 -0.32 q2.28 0 3.31 1.22 z M114.85 19.49 q-1.37 -0.77 -2.17 -2.09 t-0.8 -2.88 q0 -1.54 0.8 -2.86 t2.17 -2.09 t2.99 -0.77 t3 0.77 t2.19 2.09 t0.81 2.86 q0 1.56 -0.81 2.88 t-2.19 2.09 t-3 0.77 t-2.99 -0.77 z M116.32 11.83 q-0.7 0.41 -1.1 1.12 t-0.4 1.57 q0 0.9 0.39 1.61 t1.08 1.12 t1.55 0.41 q0.84 0 1.53 -0.41 t1.09 -1.13 t0.4 -1.6 q0 -0.86 -0.4 -1.57 t-1.09 -1.12 t-1.53 -0.41 q-0.82 0 -1.52 0.41 z M128.73 19.49 q-1.37 -0.77 -2.17 -2.09 t-0.8 -2.88 q0 -1.54 0.8 -2.86 t2.17 -2.09 t2.99 -0.77 t3 0.77 t2.19 2.09 t0.81 2.86 q0 1.56 -0.81 2.88 t-2.19 2.09 t-3 0.77 t-2.99 -0.77 z M130.2 11.83 q-0.7 0.41 -1.1 1.12 t-0.4 1.57 q0 0.9 0.39 1.61 t1.08 1.12 t1.55 0.41 q0.84 0 1.53 -0.41 t1.09 -1.13 t0.4 -1.6 q0 -0.86 -0.4 -1.57 t-1.09 -1.12 t-1.53 -0.41 q-0.82 0 -1.52 0.41 z M143.18 4.880000000000001 l0 8.8 l3.74 -4.62 l3.66 0 l-4.42 5.12 l4.6 5.82 l-3.62 0 l-2.88 -3.6 l-1.08 1.24 l0 2.36 l-3 0 l0 -15.12 l3 0 z M154.93 19.74 q-1.37 -0.54 -2.35 -1.83 t-0.98 -3.37 t0.99 -3.36 t2.37 -1.82 t2.62 -0.54 q1.44 0 2.74 0.64 t2.13 1.88 t0.87 2.94 q0 0.52 -0.02 0.9 t-0.04 0.48 l-8.68 0 q0.24 1.16 1.2 1.58 t1.8 0.42 q1.08 0 1.72 -0.39 t1.1 -0.89 l2.32 1.34 q-1.88 2.56 -5.14 2.56 q-1.28 0 -2.65 -0.54 z M155.54000000000002 12.05 q-0.78 0.61 -0.88 1.49 l5.5 0 q-0.06 -0.52 -0.4 -1 t-0.91 -0.79 t-1.29 -0.31 q-1.24 0 -2.02 0.61 z M170.98000000000002 11.87 q-0.86 0.21 -1.58 0.99 t-0.72 2.28 l0 4.86 l-2.98 0 l0 -11 l2.98 0 l0 1.46 q0.74 -0.98 1.81 -1.33 t1.95 -0.33 l0 2.92 q-0.6 -0.06 -1.46 0.15 z"></path></g><g id="SvgjsG1516" featureKey="uwAHB0-0" transform="matrix(0.7193946303237704,0,0,0.7193946303237704,35.237441733020894,132.05771844120665)" fill="url(#SvgjsLinearGradient1528)"><path d="M5.98 5.48 q2.46 0 3.86 1.78 l-1.14 0.82 q-1.04 -1.4 -2.76 -1.4 q-1.4 0 -2.27 0.72 t-0.91 1.96 q0 1.08 0.66 1.75 t2.3 1.13 q2.16 0.64 2.88 1.13 t1.09 1.21 t0.37 1.8 q0 1.72 -1.23 2.83 t-3.17 1.15 q-3.06 0 -4.6 -2.14 l1.26 -0.84 q1.06 1.76 3.24 1.78 q1.42 0 2.3 -0.79 t0.88 -1.99 q0 -0.7 -0.25 -1.15 t-0.76 -0.78 t-1.3 -0.6 t-1.85 -0.63 q-1.6 -0.52 -2.37 -1.46 t-0.77 -2.4 q0 -1.72 1.29 -2.8 t3.25 -1.08 z M24.984 5.84 l8.62 12.4 l0.04 0 l0 -12.4 l1.32 0 l0 14.16 l-1.7 0 l-8.62 -12.4 l-0.04 0 l0 12.4 l-1.32 0 l0 -14.16 l1.7 0 z M49.468 12.92 q0 2.7 1.66 4.45 t4.34 1.79 q2.7 0 4.34 -1.77 t1.66 -4.47 q0 -2.74 -1.64 -4.47 t-4.38 -1.77 q-2.68 0 -4.32 1.76 t-1.66 4.48 z M55.468 5.48 q2.16 0 3.82 0.95 t2.57 2.66 t0.93 3.83 q0 3.26 -2.06 5.33 t-5.26 2.11 q-3.22 0 -5.24 -2.09 t-2.08 -5.35 q0.02 -3.26 2.04 -5.32 t5.28 -2.12 z M76.372 12.92 q0 2.7 1.66 4.45 t4.34 1.79 q2.7 0 4.34 -1.77 t1.66 -4.47 q0 -2.74 -1.64 -4.47 t-4.38 -1.77 q-2.68 0 -4.32 1.76 t-1.66 4.48 z M82.372 5.48 q2.16 0 3.82 0.95 t2.57 2.66 t0.93 3.83 q0 3.26 -2.06 5.33 t-5.26 2.11 q-3.22 0 -5.24 -2.09 t-2.08 -5.35 q0.02 -3.26 2.04 -5.32 t5.28 -2.12 z M104.196 5.84 l0 6.24 l0.12 0 l6.86 -6.24 l1.82 0 l-7.16 6.48 l7.56 7.68 l-1.9 0 l-7.18 -7.32 l-0.12 0 l0 7.32 l-1.32 0 l0 -14.16 l1.32 0 z M133.98 5.84 l0 1.2 l-7.34 0 l0 5.04 l6.88 0 l0 1.2 l-6.88 0 l0 5.52 l7.66 0 l0 1.2 l-8.98 0 l0 -14.16 l8.66 0 z M151.624 12.08 q1.54 0 2.38 -0.69 t0.84 -1.83 t-0.82 -1.82 t-2.44 -0.7 l-2.86 0 l0 5.04 l2.9 0 z M151.224 5.84 q4.9 0 4.94 3.72 q0 3.14 -3.62 3.64 l4.12 6.8 l-1.5 0 l-3.98 -6.72 l-2.46 0 l0 6.72 l-1.32 0 l0 -14.16 l3.82 0 z M188.952 5.48 q2.46 0 3.86 1.78 l-1.14 0.82 q-1.04 -1.4 -2.76 -1.4 q-1.4 0 -2.27 0.72 t-0.91 1.96 q0 1.08 0.66 1.75 t2.3 1.13 q2.16 0.64 2.88 1.13 t1.09 1.21 t0.37 1.8 q0 1.72 -1.23 2.83 t-3.17 1.15 q-3.06 0 -4.6 -2.14 l1.26 -0.84 q1.06 1.76 3.24 1.78 q1.42 0 2.3 -0.79 t0.88 -1.99 q0 -0.7 -0.25 -1.15 t-0.76 -0.78 t-1.3 -0.6 t-1.85 -0.63 q-1.6 -0.52 -2.37 -1.46 t-0.77 -2.4 q0 -1.72 1.29 -2.8 t3.25 -1.08 z M210.636 12.08 q1.28 0 2.1 -0.63 t0.84 -1.87 q0 -1.16 -0.82 -1.85 t-2.18 -0.69 l-3 0 l0 5.04 l3.06 0 z M210.296 5.84 q2.16 0 3.36 0.96 t1.24 2.78 q0 1.7 -1.16 2.69 t-3.02 1.01 l-3.14 0 l0 6.72 l-1.32 0 l0 -14.16 l4.04 0 z M229.28 5.84 l0 14.16 l-1.32 0 l0 -14.16 l1.32 0 z M247.604 12.08 q1.54 0 2.38 -0.69 t0.84 -1.83 t-0.82 -1.82 t-2.44 -0.7 l-2.86 0 l0 5.04 l2.9 0 z M247.204 5.84 q4.9 0 4.94 3.72 q0 3.14 -3.62 3.64 l4.12 6.8 l-1.5 0 l-3.98 -6.72 l-2.46 0 l0 6.72 l-1.32 0 l0 -14.16 l3.82 0 z M266.788 5.84 l0 14.16 l-1.32 0 l0 -14.16 l1.32 0 z M290.192 5.84 l0 1.2 l-4.84 0 l0 12.96 l-1.32 0 l0 -12.96 l-4.84 0 l0 -1.2 l11 0 z"></path></g>
			</g>
		</svg>
	